PathFileType	4	(X/Y/Z)	C:/Users/beibeiliu/ov580/test_trc/capture2\sequence.29_training_dense_right.trc
DataRate	CameraRate	NumFrames	NumMarkers	Units	OrigDataRate	OrigDataStartFrame	OrigNumFrames
120	120	14	19	mm	120	86	340
Frame#	Time	ThumbCMC			ThumbMCP			ThumbIP			ThumbTip			IndexMCP			IndexPIP			IndexTip			MiddleMCP			MiddlePIP			MiddleTip			RingMCP			RingPIP			RingTip			PinkyMCP			PinkyPIP			PinkyTip			BackHand1			BackHand2			BackHand3	
		X0	Y0	Z0	X1	Y1	Z1	X2	Y2	Z2	X3	Y3	Z3	X4	Y4	Z4	X5	Y5	Z5	X6	Y6	Z6	X7	Y7	Z7	X8	Y8	Z8	X9	Y9	Z9	X10	Y10	Z10	X11	Y11	Z11	X12	Y12	Z12	X13	Y13	Z13	X14	Y14	Z14	X15	Y15	Z15	X16	Y16	Z16	X17	Y17	Z17	X18	Y18	Z18	
85	0.708333	89.613	59.2456	40.1961	73.7948	52.2902	12.016	73.4419	53.8535	-16.0149	86.3482	51.1871	-37.6529	96.3933	85.1301	-18.9878	83.3692	58.1444	-27.4101	93.0199	50.6227	5.80865	111.751	73.5519	-28.758	99.1023	47.0402	-32.8487	99.3051	39.3455	7.20766	126.887	54.2001	-28.1288	107.969	33.9545	-21.3249	113.39	35.2516	14.1374	136.506	42.4334	-20.551	119.22	23.6892	-8.7174	121.014	36.9645	22.0465	149.323	67.9717	25.0228	149.955	52.0207	54.1813	126.378	74.4313	46.1032	
86	0.716667	88.2702	59.5403	40.6355	71.8378	50.8942	13.3714	69.7715	54.5814	-17.7963	85.181	51.0259	-38.1971	95.6933	84.9133	-21.3066	84.4071	60.3534	-28.0062	95.5	51.1405	6.80156	115.508	73.6554	-27.5791	98.0241	45.7816	-30.9161	98.8913	41.4852	7.25612	125.573	54.0345	-28.7301	106.19	34.0629	-18.1088	110.181	40.1123	14.7714	137.002	43.2111	-19.1578	116.539	26.1449	-7.15941	119.334	34.3265	22.2805	150.116	67.1676	22.7553	152.408	54.4799	53.901	126.165	77.7047	43.9119	
87	0.725	89.3435	57.7352	42.8142	75.0663	52.3266	9.522	70.8158	53.1716	-19.1931	91.2526	50.6256	-40.078	98.218	85.1635	-21.3459	84.1697	61.0836	-28.2924	87.8357	50.0774	4.15425	113.164	74.0492	-28.7845	95.5589	49.6964	-30.5437	99.7229	39.6639	4.44947	124.616	56.4842	-27.7488	107.979	32.4795	-18.431	110.385	37.8345	13.5735	137.64	41.2837	-20.1786	117.721	26.1178	-6.73649	123.678	34.7974	24.8311	152.749	66.7853	24.792	150.322	53.535	51.3467	125.741	74.7961	46.2015	
88	0.733333	89.256	57.0743	43.316	72.5688	50.1136	9.98985	74.5343	50.913	-17.1481	94.7736	47.9952	-36.8861	99.9011	85.5941	-20.2454	84.7629	58.8152	-27.4745	88.4181	52.1708	5.62639	116.433	72.7474	-29.4862	98.2294	48.8926	-32.4625	97.9203	41.3046	5.76568	121.606	57.5193	-27.0559	105.468	34.3293	-17.2371	113.71	37.9071	16.5471	136.53	44.5412	-19.4388	117.195	24.4648	-5.43554	122.967	36.3631	25.98	148.94	68.3666	21.2274	148.976	55.9196	50.5464	124.999	77.4803	45.0319	
89	0.741667	89.8131	60.0509	38.0453	75.0791	49.4778	9.35123	74.4859	50.8361	-20.8616	93.6222	46.8614	-36.7268	98.2676	86.4695	-19.9636	81.2062	64.3123	-28.9374	90.8595	50.0891	4.26665	116.162	73.764	-27.3961	95.2647	49.0971	-30.3275	97.9448	44.458	6.57256	121.934	57.6149	-27.7929	107.686	33.9901	-20.067	109.166	38.8292	13.4537	136.623	41.6221	-21.1022	116.401	26.228	-8.89656	120.305	31.868	23.2154	151.94	65.654	23.349	151.535	53.2621	49.5956	124.367	80.2694	43.1227	
90	0.75	88.1422	58.8689	40.1052	74.4512	50.7173	6.35422	75.7163	51.6728	-23.5582	94.9819	47.189	-41.9806	95.0463	88.3625	-21.036	84.1256	62.792	-29.4543	87.1258	50.5572	1.56738	116.603	74.9715	-26.8044	95.1646	50.4415	-30.7744	98.0118	42.038	3.91426	125.867	57.0691	-27.4521	105.193	34.3084	-16.9719	112.318	39.5192	15.0402	136.528	43.5651	-20.0796	117.656	23.5155	-7.61987	120.123	32.3857	20.7355	149.411	68.6553	20.6975	147.706	53.6441	54.1862	123.762	80.7557	43.8582	
91	0.758333	91.9316	59.1879	39.2051	75.1237	51.7412	5.81564	76.6128	48.8836	-18.1494	93.3236	47.745	-41.2062	98.5351	87.0163	-21.2842	80.9841	61.7411	-26.7889	88.2473	51.4691	2.93156	114.845	74.9416	-27.8691	94.8056	48.2929	-28.7403	99.3971	43.9641	5.99417	123.22	58.1362	-28.3599	106.071	32.3899	-17.4197	110.183	39.2264	12.6756	138.292	41.9153	-22.0612	116.196	25.3641	-7.38974	119.821	32.402	20.4706	151.49	68.7422	20.1632	151.138	53.4422	51.9264	124.447	78.0162	45.5768	
92	0.766667	90.5605	60.8666	37.4171	79.6874	50.5053	7.6515	75.6951	50.0658	-20.0547	97.1787	47.7671	-37.585	96.3927	88.6148	-20.0134	80.4047	62.3684	-27.2371	89.6696	51.2118	2.67188	115.084	76.6794	-28.1609	94.3456	51.5797	-29.5779	102.161	42.3561	3.2724	123.115	59.5709	-27.5774	106.976	35.3194	-22.6515	114.099	39.7267	15.0404	134.938	42.5458	-23.9828	116.336	27.135	-12.3572	119.059	34.3266	21.1818	152.484	68.0507	21.3829	152.702	52.4948	52.5512	124.884	77.0401	44.2737	
93	0.775	91.558	61.0174	38.4757	76.6107	50.2156	7.87109	78.3934	52.7788	-23.0353	95.1288	49.4581	-42.6412	98.1638	89.4853	-19.4608	80.0462	65.8362	-28.6064	91.0559	51.5856	2.91113	115.005	79.5348	-25.9184	97.4221	49.3288	-30.073	101.004	46.3849	5.47218	123.887	59.2155	-28.2599	107.248	37.2477	-22.4833	108.458	39.2142	10.1659	135.837	44.3254	-22.0269	116.692	25.6708	-10.9363	120.351	34.3179	21.0042	154.281	67.6063	19.835	148.535	53.3967	54.2158	126.647	81.0048	42.8752	
94	0.783333	92.3477	59.1904	40.9008	76.9714	50.5328	9.60782	76.9876	53.3914	-22.9525	99.7462	50.0449	-41.4739	100.579	88.4998	-21.0218	82.9078	63.8408	-27.5704	86.0731	53.1566	2.85908	115.88	79.1518	-27.9016	96.8772	52.0688	-30.0454	101.947	47.6285	5.98369	125.464	59.6558	-29.6562	108.233	36.6206	-22.3509	111.483	37.0503	11.4057	136.716	47.8555	-19.6096	115.155	29.5376	-11.0033	120.055	36.7533	22.7912	153.344	66.6849	20.3554	151.417	54.6084	48.4814	125.891	80.5949	47.1856	
95	0.791667	90.0983	62.6163	39.257	75.5096	53.574	8.46271	77.6082	55.6048	-24.5153	98.8919	51.8489	-38.1735	100.109	92.4489	-18.1548	83.3902	66.5474	-27.9139	86.4792	54.9143	2.15215	119.99	78.5798	-26.8407	96.5699	55.0296	-32.123	101.827	46.7282	3.58599	125.777	62.4511	-27.3603	106.164	39.518	-22.6089	110.126	39.3487	11.4307	134.986	47.5807	-21.2469	114.78	28.8213	-8.78867	120.269	35.5307	20.069	152.886	69.2122	22.3204	151.974	55.2136	50.2196	129.359	80.4105	42.2472	
96	0.8	90.0482	65.1179	39.5869	81.1263	55.8646	7.07234	78.3632	56.281	-19.3457	97.573	53.1274	-39.7101	99.8026	94.318	-18.6496	81.4758	72.4676	-29.2069	89.2879	53.4557	-0.789232	114.904	80.529	-29.8263	98.4242	54.4062	-32.7034	98.3839	47.6288	1.76383	127.771	60.513	-27.3031	104.751	38.7019	-18.8361	107.917	44.4255	13.1988	138.376	44.6131	-22.9246	112.982	32.57	-9.05119	117.93	33.9249	20.3564	151.994	68.1234	23.4775	150.362	56.9677	50.2911	128.781	80.0303	46.7068	
97	0.808333	90.0199	65.3897	39.898	80.5923	57.2387	9.98934	73.167	58.2257	-17.9655	94.2017	54.583	-39.1288	104.397	94.8058	-19.5303	85.1717	73.7073	-30.6598	88.1995	55.5912	-2.87361	115.624	82.1649	-30.2218	95.9932	59.2084	-33.8508	98.3455	48.3183	2.48235	124.559	59.8436	-29.7504	106.65	38.4159	-22.5604	110.766	40.2454	11.655	135.749	46.9698	-21.3271	114.367	28.2032	-8.25655	120.551	35.5184	22.7928	154.272	67.0173	20.0599	152.863	56.9277	49.6498	128.937	81.6228	44.385	
98	0.816667	91.1476	65.3456	43.8908	76.803	58.468	14.0948	74.8639	61.2486	-13.9528	86.5254	59.4219	-40.7637	109.067	95.9897	-19.8581	90.5351	77.2616	-35.5163	83.9056	57.8348	-7.17415	120.394	80.2658	-30.6759	96.8804	56.8708	-34.8857	94.3237	47.3407	-2.77922	128.435	59.465	-27.823	105.926	39.6493	-23.8811	108.162	39.7626	9.13306	139.432	42.0513	-22.9168	111.231	31.8973	-9.80707	118.644	36.7695	19.1835	153.057	65.6258	22.67	153.767	51.991	51.9235	129.454	81.8826	42.5642	
